<svg xmlns="http://www.w3.org/2000/svg" xmlns:xlink="http://www.w3.org/1999/xlink" contentStyleType="text/css" data-diagram-type="DESCRIPTION" height="2007px" preserveAspectRatio="none" style="width:537px;height:2007px;background:#FFFFFF;" version="1.1" viewBox="0 0 537 2007" width="537px" zoomAndPan="magnify"><defs/><g><!--cluster Kontekst: Autentykacja--><g class="cluster" data-entity="Kontekst. Autentykacja" data-source-line="11" data-uid="ent0008" id="cluster_Kontekst. Autentykacja"><rect fill="none" height="239" rx="2.5" ry="2.5" style="stroke:#181818;stroke-width:1;" width="219" x="271" y="886"/><text fill="#000000" font-family="sans-serif" font-size="14" font-weight="bold" lengthAdjust="spacing" textLength="185.5068" x="287.7466" y="900.9951">Kontekst: Autentykacja</text></g><!--cluster Kontekst: Zam?wienia--><g class="cluster" data-entity="Kontekst. Zam.wienia" data-source-line="17" data-uid="ent0012" id="cluster_Kontekst. Zam.wienia"><rect fill="none" height="236" rx="2.5" ry="2.5" style="stroke:#181818;stroke-width:1;" width="214" x="273.5" y="626"/><text fill="#000000" font-family="sans-serif" font-size="14" font-weight="bold" lengthAdjust="spacing" textLength="176.6748" x="292.1626" y="640.9951">Kontekst: Zam&#243;wienia</text></g><!--cluster Kontekst: Oferta--><g class="cluster" data-entity="Kontekst. Oferta" data-source-line="23" data-uid="ent0016" id="cluster_Kontekst. Oferta"><rect fill="none" height="172" rx="2.5" ry="2.5" style="stroke:#181818;stroke-width:1;" width="243" x="259" y="1537"/><text fill="#000000" font-family="sans-serif" font-size="14" font-weight="bold" lengthAdjust="spacing" textLength="131.9609" x="314.5195" y="1551.9951">Kontekst: Oferta</text></g><!--cluster Kontekst: Dostarczanie--><g class="cluster" data-entity="Kontekst. Dostarczanie" data-source-line="28" data-uid="ent0019" id="cluster_Kontekst. Dostarczanie"><rect fill="none" height="403" rx="2.5" ry="2.5" style="stroke:#181818;stroke-width:1;" width="252" x="254.5" y="7"/><text fill="#000000" font-family="sans-serif" font-size="14" font-weight="bold" lengthAdjust="spacing" textLength="184.2012" x="288.3994" y="21.9951">Kontekst: Dostarczanie</text></g><!--cluster Kontekst: P?atno?ci--><g class="cluster" data-entity="Kontekst. P.atno.ci" data-source-line="36" data-uid="ent0025" id="cluster_Kontekst. P.atno.ci"><rect fill="none" height="168" rx="2.5" ry="2.5" style="stroke:#181818;stroke-width:1;" width="216" x="272.5" y="434"/><text fill="#000000" font-family="sans-serif" font-size="14" font-weight="bold" lengthAdjust="spacing" textLength="154.041" x="303.4795" y="448.9951">Kontekst: P&#322;atno&#347;ci</text></g><!--cluster Kontekst: Restauracja--><g class="cluster" data-entity="Kontekst. Restauracja" data-source-line="41" data-uid="ent0028" id="cluster_Kontekst. Restauracja"><rect fill="none" height="268" rx="2.5" ry="2.5" style="stroke:#181818;stroke-width:1;" width="301" x="230" y="1733"/><text fill="#000000" font-family="sans-serif" font-size="14" font-weight="bold" lengthAdjust="spacing" textLength="175.041" x="292.9795" y="1747.9951">Kontekst: Restauracja</text></g><!--cluster Kontekst: Marketing--><g class="cluster" data-entity="Kontekst. Marketing" data-source-line="47" data-uid="ent0032" id="cluster_Kontekst. Marketing"><rect fill="none" height="166" rx="2.5" ry="2.5" style="stroke:#181818;stroke-width:1;" width="230" x="265.5" y="1347"/><text fill="#000000" font-family="sans-serif" font-size="14" font-weight="bold" lengthAdjust="spacing" textLength="161.998" x="299.501" y="1361.9951">Kontekst: Marketing</text></g><!--cluster Kontekst: Reklamacje--><g class="cluster" data-entity="Kontekst. Reklamacje" data-source-line="52" data-uid="ent0035" id="cluster_Kontekst. Reklamacje"><rect fill="none" height="174" rx="2.5" ry="2.5" style="stroke:#181818;stroke-width:1;" width="237" x="262" y="1149"/><text fill="#000000" font-family="sans-serif" font-size="14" font-weight="bold" lengthAdjust="spacing" textLength="171.8896" x="294.5552" y="1163.9951">Kontekst: Reklamacje</text></g><!--entity UC_A1--><g class="entity" data-entity="UC_A1" data-source-line="12" data-uid="ent0009" id="entity_UC_A1"><ellipse cx="380.7337" cy="1014.2467" fill="#F1F1F1" rx="76.7337" ry="17.7467" style="stroke:#181818;stroke-width:0.5;"/><text fill="#000000" font-family="sans-serif" font-size="14" lengthAdjust="spacing" textLength="122.9102" x="319.2786" y="1018.8952">Utworzenie konta</text></g><!--entity UC_A2--><g class="entity" data-entity="UC_A2" data-source-line="13" data-uid="ent0010" id="entity_UC_A2"><ellipse cx="380.2504" cy="1088.0501" fill="#F1F1F1" rx="93.2504" ry="21.0501" style="stroke:#181818;stroke-width:0.5;"/><text fill="#000000" font-family="sans-serif" font-size="14" lengthAdjust="spacing" textLength="161.0615" x="299.7196" y="1092.6985">Logowanie do systemu</text></g><!--entity UC_A3--><g class="entity" data-entity="UC_A3" data-source-line="14" data-uid="ent0011" id="entity_UC_A3"><ellipse cx="380.2641" cy="940.9528" fill="#F1F1F1" rx="87.7641" ry="19.9528" style="stroke:#181818;stroke-width:0.5;"/><text fill="#000000" font-family="sans-serif" font-size="14" lengthAdjust="spacing" textLength="148.6611" x="305.9336" y="945.6013">Zarz&#261;dzanie profilem</text></g><!--entity UC_Z1--><g class="entity" data-entity="UC_Z1" data-source-line="18" data-uid="ent0013" id="entity_UC_Z1"><ellipse cx="380.6191" cy="825.1238" fill="#F1F1F1" rx="91.1191" ry="20.6238" style="stroke:#181818;stroke-width:0.5;"/><text fill="#000000" font-family="sans-serif" font-size="14" lengthAdjust="spacing" textLength="156.2695" x="302.4843" y="829.7722">Sk&#322;adanie zam&#243;wienia</text></g><!--entity UC_Z2--><g class="entity" data-entity="UC_Z2" data-source-line="19" data-uid="ent0014" id="entity_UC_Z2"><ellipse cx="380.6701" cy="678.834" fill="#F1F1F1" rx="77.1701" ry="17.834" style="stroke:#181818;stroke-width:0.5;"/><text fill="#000000" font-family="sans-serif" font-size="14" lengthAdjust="spacing" textLength="123.9561" x="318.6921" y="683.4825">&#346;ledzenie statusu</text></g><!--entity UC_Z3--><g class="entity" data-entity="UC_Z3" data-source-line="20" data-uid="ent0015" id="entity_UC_Z3"><ellipse cx="380.4582" cy="750.7916" fill="#F1F1F1" rx="79.4582" ry="18.2916" style="stroke:#181818;stroke-width:0.5;"/><text fill="#000000" font-family="sans-serif" font-size="14" lengthAdjust="spacing" textLength="129.3975" x="315.7594" y="755.4401">Historia zam&#243;wie&#324;</text></g><!--entity UC_O1--><g class="entity" data-entity="UC_O1" data-source-line="24" data-uid="ent0017" id="entity_UC_O1"><ellipse cx="380.3564" cy="1668.9713" fill="#F1F1F1" rx="105.3564" ry="23.4713" style="stroke:#181818;stroke-width:0.5;"/><text fill="#000000" font-family="sans-serif" font-size="14" lengthAdjust="spacing" textLength="187.7969" x="286.458" y="1673.6197">Zarz&#261;dzanie ofert&#261; (menu)</text></g><!--entity UC_O2--><g class="entity" data-entity="UC_O2" data-source-line="25" data-uid="ent0018" id="entity_UC_O2"><ellipse cx="380.2591" cy="1590.7518" fill="#F1F1F1" rx="81.7591" ry="18.7518" style="stroke:#181818;stroke-width:0.5;"/><text fill="#000000" font-family="sans-serif" font-size="14" lengthAdjust="spacing" textLength="134.8047" x="312.8568" y="1595.4003">Przegl&#261;danie menu</text></g><!--entity UC_D1--><g class="entity" data-entity="UC_D1" data-source-line="29" data-uid="ent0020" id="entity_UC_D1"><ellipse cx="380.3797" cy="373.0759" fill="#F1F1F1" rx="90.8797" ry="20.5759" style="stroke:#181818;stroke-width:0.5;"/><text fill="#000000" font-family="sans-serif" font-size="14" lengthAdjust="spacing" textLength="155.7295" x="302.515" y="377.7244">Zarz&#261;dzanie adresami</text></g><!--entity UC_D2--><g class="entity" data-entity="UC_D2" data-source-line="30" data-uid="ent0021" id="entity_UC_D2"><ellipse cx="380.6165" cy="211.1233" fill="#F1F1F1" rx="98.6165" ry="22.1233" style="stroke:#181818;stroke-width:0.5;"/><text fill="#000000" font-family="sans-serif" font-size="14" lengthAdjust="spacing" textLength="173.0039" x="294.1145" y="215.7717">Aktualizacja dost&#281;pno&#347;ci</text></g><!--entity UC_D3--><g class="entity" data-entity="UC_D3" data-source-line="31" data-uid="ent0022" id="entity_UC_D3"><ellipse cx="380.5164" cy="58.8033" fill="#F1F1F1" rx="69.5164" ry="16.3033" style="stroke:#181818;stroke-width:0.5;"/><text fill="#000000" font-family="sans-serif" font-size="14" lengthAdjust="spacing" textLength="105.1572" x="327.9378" y="63.4517">Odbi&#243;r z lokalu</text></g><!--entity UC_D4--><g class="entity" data-entity="UC_D4" data-source-line="32" data-uid="ent0023" id="entity_UC_D4"><ellipse cx="380.6432" cy="131.9286" fill="#F1F1F1" rx="95.1432" ry="21.4286" style="stroke:#181818;stroke-width:0.5;"/><text fill="#000000" font-family="sans-serif" font-size="14" lengthAdjust="spacing" textLength="165.293" x="297.9967" y="136.5771">Dostarczenie do klienta</text></g><!--entity UC_D5--><g class="entity" data-entity="UC_D5" data-source-line="33" data-uid="ent0024" id="entity_UC_D5"><ellipse cx="380.3738" cy="292.8748" fill="#F1F1F1" rx="109.8738" ry="24.3748" style="stroke:#181818;stroke-width:0.5;"/><text fill="#000000" font-family="sans-serif" font-size="14" lengthAdjust="spacing" textLength="197.6064" x="281.5705" y="297.5232">Przypisanie kuriera i czas&#243;w</text></g><!--entity UC_P1--><g class="entity" data-entity="UC_P1" data-source-line="37" data-uid="ent0026" id="entity_UC_P1"><ellipse cx="380.3989" cy="564.7798" fill="#F1F1F1" rx="91.8989" ry="20.7798" style="stroke:#181818;stroke-width:0.5;"/><text fill="#000000" font-family="sans-serif" font-size="14" lengthAdjust="spacing" textLength="158.0264" x="301.3857" y="569.4282">Op&#322;acenie zam&#243;wienia</text></g><!--entity UC_P2--><g class="entity" data-entity="UC_P2" data-source-line="38" data-uid="ent0027" id="entity_UC_P2"><ellipse cx="380.2951" cy="489.059" fill="#F1F1F1" rx="88.2951" ry="20.059" style="stroke:#181818;stroke-width:0.5;"/><text fill="#000000" font-family="sans-serif" font-size="14" lengthAdjust="spacing" textLength="149.8711" x="305.3596" y="493.7075">Weryfikacja p&#322;atno&#347;ci</text></g><!--entity UC_R1--><g class="entity" data-entity="UC_R1" data-source-line="42" data-uid="ent0029" id="entity_UC_R1"><ellipse cx="380.7236" cy="1786.9447" fill="#F1F1F1" rx="82.7236" ry="18.9447" style="stroke:#181818;stroke-width:0.5;"/><text fill="#000000" font-family="sans-serif" font-size="14" lengthAdjust="spacing" textLength="137.0537" x="312.1968" y="1791.5932">Dodanie restauracji</text></g><!--entity UC_R2--><g class="entity" data-entity="UC_R2" data-source-line="43" data-uid="ent0030" id="entity_UC_R2"><ellipse cx="380.7145" cy="1870.8429" fill="#F1F1F1" rx="134.7145" ry="29.3429" style="stroke:#181818;stroke-width:0.5;"/><text fill="#000000" font-family="sans-serif" font-size="14" lengthAdjust="spacing" textLength="250.5098" x="255.4596" y="1875.4913">Zarz&#261;dzanie personelem/godzinami</text></g><!--entity UC_R3--><g class="entity" data-entity="UC_R3" data-source-line="44" data-uid="ent0031" id="entity_UC_R3"><ellipse cx="380.2979" cy="1959.8596" fill="#F1F1F1" rx="109.7979" ry="24.3596" style="stroke:#181818;stroke-width:0.5;"/><text fill="#000000" font-family="sans-serif" font-size="14" lengthAdjust="spacing" textLength="197.4424" x="281.5767" y="1964.508">Odbi&#243;r zlecenia do realizacji</text></g><!--entity UC_M1--><g class="entity" data-entity="UC_M1" data-source-line="48" data-uid="ent0033" id="entity_UC_M1"><ellipse cx="380.3856" cy="1475.1771" fill="#F1F1F1" rx="98.8856" ry="22.1771" style="stroke:#181818;stroke-width:0.5;"/><text fill="#000000" font-family="sans-serif" font-size="14" lengthAdjust="spacing" textLength="173.5986" x="293.5863" y="1479.8256">Zarz&#261;dzanie promocjami</text></g><!--entity UC_M2--><g class="entity" data-entity="UC_M2" data-source-line="49" data-uid="ent0034" id="entity_UC_M2"><ellipse cx="380.3562" cy="1399.7712" fill="#F1F1F1" rx="76.8562" ry="17.7712" style="stroke:#181818;stroke-width:0.5;"/><text fill="#000000" font-family="sans-serif" font-size="14" lengthAdjust="spacing" textLength="123.2041" x="318.7542" y="1404.4197">Aplikowanie kodu</text></g><!--entity UC_Rek1--><g class="entity" data-entity="UC_Rek1" data-source-line="53" data-uid="ent0036" id="entity_UC_Rek1"><ellipse cx="380.5591" cy="1204.8118" fill="#F1F1F1" rx="89.5591" ry="20.3118" style="stroke:#181818;stroke-width:0.5;"/><text fill="#000000" font-family="sans-serif" font-size="14" lengthAdjust="spacing" textLength="152.7422" x="304.188" y="1209.4602">Zg&#322;oszenie reklamacji</text></g><!--entity UC_Rek2--><g class="entity" data-entity="UC_Rek2" data-source-line="54" data-uid="ent0037" id="entity_UC_Rek2"><ellipse cx="380.6449" cy="1283.929" fill="#F1F1F1" rx="102.6449" ry="22.929" style="stroke:#181818;stroke-width:0.5;"/><text fill="#000000" font-family="sans-serif" font-size="14" lengthAdjust="spacing" textLength="181.8701" x="289.7099" y="1288.5774">Rozpatrywanie zg&#322;oszenia</text></g><!--entity klient--><g class="entity" data-entity="klient" data-source-line="4" data-uid="ent0002" id="entity_klient"><ellipse cx="95.9678" cy="911.5" fill="#F1F1F1" rx="8" ry="8" style="stroke:#181818;stroke-width:0.5;"/><path d="M95.9678,919.5 L95.9678,946.5 M82.9678,927.5 L108.9678,927.5 M95.9678,946.5 L82.9678,961.5 M95.9678,946.5 L108.9678,961.5" fill="none" style="stroke:#181818;stroke-width:0.5;"/><text fill="#000000" font-family="sans-serif" font-size="14" lengthAdjust="spacing" textLength="39.9355" x="76" y="975.9951">Klient</text></g><!--entity kurier--><g class="entity" data-entity="kurier" data-source-line="5" data-uid="ent0003" id="entity_kurier"><ellipse cx="96.0342" cy="142.5" fill="#F1F1F1" rx="8" ry="8" style="stroke:#181818;stroke-width:0.5;"/><path d="M96.0342,150.5 L96.0342,177.5 M83.0342,158.5 L109.0342,158.5 M96.0342,177.5 L83.0342,192.5 M96.0342,177.5 L109.0342,192.5" fill="none" style="stroke:#181818;stroke-width:0.5;"/><text fill="#000000" font-family="sans-serif" font-size="14" lengthAdjust="spacing" textLength="42.0684" x="75" y="206.9951">Kurier</text></g><!--entity admin--><g class="entity" data-entity="admin" data-source-line="6" data-uid="ent0004" id="entity_admin"><ellipse cx="95.7866" cy="1542.5" fill="#F1F1F1" rx="8" ry="8" style="stroke:#181818;stroke-width:0.5;"/><path d="M95.7866,1550.5 L95.7866,1577.5 M82.7866,1558.5 L108.7866,1558.5 M95.7866,1577.5 L82.7866,1592.5 M95.7866,1577.5 L108.7866,1592.5" fill="none" style="stroke:#181818;stroke-width:0.5;"/><text fill="#000000" font-family="sans-serif" font-size="14" lengthAdjust="spacing" textLength="179.5732" x="6" y="1606.9951">Administrator / Marketing</text></g><!--entity pracownik--><g class="entity" data-entity="pracownik" data-source-line="7" data-uid="ent0005" id="entity_pracownik"><ellipse cx="95.8125" cy="1841.5" fill="#F1F1F1" rx="8" ry="8" style="stroke:#181818;stroke-width:0.5;"/><path d="M95.8125,1849.5 L95.8125,1876.5 M82.8125,1857.5 L108.8125,1857.5 M95.8125,1876.5 L82.8125,1891.5 M95.8125,1876.5 L108.8125,1891.5" fill="none" style="stroke:#181818;stroke-width:0.5;"/><text fill="#000000" font-family="sans-serif" font-size="14" lengthAdjust="spacing" textLength="121.625" x="35" y="1905.9951">Pracownik Lokalu</text></g><!--entity support--><g class="entity" data-entity="support" data-source-line="8" data-uid="ent0006" id="entity_support"><ellipse cx="95.8076" cy="1156.5" fill="#F1F1F1" rx="8" ry="8" style="stroke:#181818;stroke-width:0.5;"/><path d="M95.8076,1164.5 L95.8076,1191.5 M82.8076,1172.5 L108.8076,1172.5 M95.8076,1191.5 L82.8076,1206.5 M95.8076,1191.5 L108.8076,1206.5" fill="none" style="stroke:#181818;stroke-width:0.5;"/><text fill="#000000" font-family="sans-serif" font-size="14" lengthAdjust="spacing" textLength="105.6152" x="43" y="1220.9951">Pracownik BOK</text></g><!--entity sys--><g class="entity" data-entity="sys" data-source-line="9" data-uid="ent0007" id="entity_sys"><ellipse cx="95.9355" cy="369.2969" fill="#F1F1F1" rx="8" ry="8" style="stroke:#181818;stroke-width:0.5;"/><path d="M95.9355,377.2969 L95.9355,404.2969 M82.9355,385.2969 L108.9355,385.2969 M95.9355,404.2969 L82.9355,419.2969 M95.9355,404.2969 L108.9355,419.2969" fill="none" style="stroke:#181818;stroke-width:0.5;"/><text fill="#000000" font-family="sans-serif" font-size="14" lengthAdjust="spacing" textLength="52.2061" x="69.8325" y="433.792">System</text><text fill="#000000" font-family="sans-serif" font-size="14" font-style="italic" lengthAdjust="spacing" textLength="121.8711" x="35" y="357.4951">&#171;Automatyzacja&#187;</text></g><!--link klient to UC_A1--><g class="link" data-entity-1="klient" data-entity-2="UC_A1" data-source-line="58" data-uid="lnk38" id="link_klient_UC_A1"><path d="M116.38,947.15 C140.86,954.82 184.34,968.13 222,978 C255.65,986.82 287.7899,994.2518 318.0399,1000.9018" fill="none" id="klient-to-UC_A1" style="stroke:#181818;stroke-width:1;"/><polygon fill="#181818" points="323.9,1002.19,315.9687,996.3509,319.0166,1001.1165,314.2511,1004.1643,323.9,1002.19" style="stroke:#181818;stroke-width:1;"/></g><!--link klient to UC_A2--><g class="link" data-entity-1="klient" data-entity-2="UC_A2" data-source-line="59" data-uid="lnk39" id="link_klient_UC_A2"><path d="M116.4,963.1 C139.23,987.73 179.47,1026.98 222,1049 C246.77,1061.82 270.0733,1069.2563 296.5333,1075.1463" fill="none" id="klient-to-UC_A2" style="stroke:#181818;stroke-width:1;"/><polygon fill="#181818" points="302.39,1076.45,294.4741,1070.59,297.5095,1075.3636,292.7359,1078.3989,302.39,1076.45" style="stroke:#181818;stroke-width:1;"/></g><!--link klient to UC_A3--><g class="link" data-entity-1="klient" data-entity-2="UC_A3" data-source-line="60" data-uid="lnk40" id="link_klient_UC_A3"><path d="M116.42,941 C152.19,941 224.53,941 286.46,941" fill="none" id="klient-to-UC_A3" style="stroke:#181818;stroke-width:1;"/><polygon fill="#181818" points="292.46,941,283.46,937,287.46,941,283.46,945,292.46,941" style="stroke:#181818;stroke-width:1;"/></g><!--link klient to UC_Z1--><g class="link" data-entity-1="klient" data-entity-2="UC_Z1" data-source-line="61" data-uid="lnk41" id="link_klient_UC_Z1"><path d="M116.42,933.03 C161.36,914.57 267.8897,870.8292 330.2797,845.2092" fill="none" id="klient-to-UC_Z1" style="stroke:#181818;stroke-width:1;"/><polygon fill="#181818" points="335.83,842.93,325.9852,842.6486,331.2048,844.8293,329.0241,850.0489,335.83,842.93" style="stroke:#181818;stroke-width:1;"/></g><!--link klient to UC_Z2--><g class="link" data-entity-1="klient" data-entity-2="UC_Z2" data-source-line="62" data-uid="lnk42" id="link_klient_UC_Z2"><path d="M107.38,902.92 C123.31,851.98 158.77,762.59 222,715 C245.87,697.04 271.22,688.7662 299.6,684.0862" fill="none" id="klient-to-UC_Z2" style="stroke:#181818;stroke-width:1;"/><polygon fill="#181818" points="305.52,683.11,295.9891,680.6277,300.5866,683.9235,297.2908,688.5211,305.52,683.11" style="stroke:#181818;stroke-width:1;"/></g><!--link klient to UC_Z3--><g class="link" data-entity-1="klient" data-entity-2="UC_Z3" data-source-line="63" data-uid="lnk43" id="link_klient_UC_Z3"><path d="M116.03,905.88 C137.17,870.32 174.64,816.48 222,787 C247,771.43 272.0855,763.646 299.9455,758.616" fill="none" id="klient-to-UC_Z3" style="stroke:#181818;stroke-width:1;"/><polygon fill="#181818" points="305.85,757.55,296.2825,755.2127,300.9296,758.4384,297.7039,763.0854,305.85,757.55" style="stroke:#181818;stroke-width:1;"/></g><!--link klient to UC_O2--><g class="link" data-entity-1="klient" data-entity-2="UC_O2" data-source-line="64" data-uid="lnk44" id="link_klient_UC_O2"><path d="M116.19,972.79 C137.22,1009.32 170.07,1071.75 186,1130 C208.55,1212.46 173.57,1442.56 222,1513 C245.08,1546.57 281.2106,1564.4954 315.9706,1575.7254" fill="none" id="klient-to-UC_O2" style="stroke:#181818;stroke-width:1;"/><polygon fill="#181818" points="321.68,1577.57,314.3456,1570.9969,316.9221,1576.0329,311.8861,1578.6094,321.68,1577.57" style="stroke:#181818;stroke-width:1;"/></g><!--link klient to UC_D1--><g class="link" data-entity-1="klient" data-entity-2="UC_D1" data-source-line="65" data-uid="lnk45" id="link_klient_UC_D1"><path d="M96.6,902.76 C97.62,813.88 111.77,590.49 222,453 C247.32,421.41 282.7675,403.1703 316.6175,390.9303" fill="none" id="klient-to-UC_D1" style="stroke:#181818;stroke-width:1;"/><polygon fill="#181818" points="322.26,388.89,312.4361,388.1888,317.558,390.5902,315.1565,395.7121,322.26,388.89" style="stroke:#181818;stroke-width:1;"/></g><!--link klient to UC_P1--><g class="link" data-entity-1="klient" data-entity-2="UC_P1" data-source-line="66" data-uid="lnk46" id="link_klient_UC_P1"><path d="M104.28,902.75 C117.69,841.46 151.64,720.5 222,645 C249.91,615.05 285.9424,596.7141 319.3924,583.9841" fill="none" id="klient-to-UC_P1" style="stroke:#181818;stroke-width:1;"/><polygon fill="#181818" points="325,581.85,315.1658,581.3127,320.327,583.6284,318.0113,588.7896,325,581.85" style="stroke:#181818;stroke-width:1;"/></g><!--link klient to UC_M2--><g class="link" data-entity-1="klient" data-entity-2="UC_M2" data-source-line="67" data-uid="lnk47" id="link_klient_UC_M2"><path d="M116.14,974.75 C136.34,1011.75 167.73,1073.4 186,1130 C212.81,1213.04 169.18,1253.55 222,1323 C247.34,1356.31 285.1741,1374.2255 320.0741,1385.3655" fill="none" id="klient-to-UC_M2" style="stroke:#181818;stroke-width:1;"/><polygon fill="#181818" points="325.79,1387.19,318.4325,1380.6427,321.0268,1385.6696,315.9999,1388.2638,325.79,1387.19" style="stroke:#181818;stroke-width:1;"/></g><!--link klient to UC_Rek1--><g class="link" data-entity-1="klient" data-entity-2="UC_Rek1" data-source-line="68" data-uid="lnk48" id="link_klient_UC_Rek1"><path d="M115.61,979.36 C136.77,1019.79 174.61,1083.27 222,1125 C253.99,1153.17 292.1187,1172.088 325.3587,1185.548" fill="none" id="klient-to-UC_Rek1" style="stroke:#181818;stroke-width:1;"/><polygon fill="#181818" points="330.92,1187.8,324.0793,1180.7145,326.2855,1185.9234,321.0767,1188.1296,330.92,1187.8" style="stroke:#181818;stroke-width:1;"/></g><!--link kurier to UC_A2--><g class="link" data-entity-1="kurier" data-entity-2="UC_A2" data-source-line="71" data-uid="lnk49" id="link_kurier_UC_A2"><path d="M117.08,197.94 C138.58,227.38 171.54,277.72 186,327 C208.62,404.07 170.94,987 222,1049 C238.3,1068.79 257.0507,1078.1484 282.0007,1083.6484" fill="none" id="kurier-to-UC_A2" style="stroke:#181818;stroke-width:1;"/><polygon fill="#181818" points="287.86,1084.94,279.9321,1079.0963,282.9772,1083.8636,278.2099,1086.9088,287.86,1084.94" style="stroke:#181818;stroke-width:1;"/></g><!--link kurier to UC_D2--><g class="link" data-entity-1="kurier" data-entity-2="UC_D2" data-source-line="72" data-uid="lnk50" id="link_kurier_UC_D2"><path d="M117.32,174.8 C154.26,179.9 228.3964,190.1394 290.3964,198.6994" fill="none" id="kurier-to-UC_D2" style="stroke:#181818;stroke-width:1;"/><polygon fill="#181818" points="296.34,199.52,287.9716,194.3267,291.387,198.8362,286.8775,202.2515,296.34,199.52" style="stroke:#181818;stroke-width:1;"/></g><!--link kurier to UC_D3--><g class="link" data-entity-1="kurier" data-entity-2="UC_D3" data-source-line="73" data-uid="lnk51" id="link_kurier_UC_D3"><path d="M117,156.2 C140.72,138.24 182.08,109.32 222,93 C252.94,80.35 283.4082,73.1251 313.3982,67.9251" fill="none" id="kurier-to-UC_D3" style="stroke:#181818;stroke-width:1;"/><polygon fill="#181818" points="319.31,66.9,309.7589,64.4964,314.3835,67.7542,311.1257,72.3788,319.31,66.9" style="stroke:#181818;stroke-width:1;"/></g><!--link kurier to UC_D4--><g class="link" data-entity-1="kurier" data-entity-2="UC_D4" data-source-line="74" data-uid="lnk52" id="link_kurier_UC_D4"><path d="M117.32,169.12 C154.89,163.8 231.1592,153.0005 293.5692,144.1705" fill="none" id="kurier-to-UC_D4" style="stroke:#181818;stroke-width:1;"/><polygon fill="#181818" points="299.51,143.33,290.0384,140.6302,294.5593,144.0304,291.1591,148.5514,299.51,143.33" style="stroke:#181818;stroke-width:1;"/></g><!--link admin to UC_A2--><g class="link" data-entity-1="admin" data-entity-2="UC_A2" data-source-line="77" data-uid="lnk53" id="link_admin_UC_A2"><path d="M107.02,1533.71 C132.18,1438.53 197.75,1196.77 222,1168 C247.99,1137.17 283.2126,1118.9814 316.7926,1106.5614" fill="none" id="admin-to-UC_A2" style="stroke:#181818;stroke-width:1;"/><polygon fill="#181818" points="322.42,1104.48,312.5913,1103.8504,317.7305,1106.2145,315.3665,1111.3537,322.42,1104.48" style="stroke:#181818;stroke-width:1;"/></g><!--link admin to UC_R1--><g class="link" data-entity-1="admin" data-entity-2="UC_R1" data-source-line="78" data-uid="lnk54" id="link_admin_UC_R1"><path d="M125.36,1610.18 C148.83,1639.86 184.32,1680.62 222,1709 C257.46,1735.71 297.9412,1754.9672 331.0712,1768.5972" fill="none" id="admin-to-UC_R1" style="stroke:#181818;stroke-width:1;"/><polygon fill="#181818" points="336.62,1770.88,329.8187,1763.7566,331.996,1768.9777,326.775,1771.155,336.62,1770.88" style="stroke:#181818;stroke-width:1;"/></g><!--link admin to UC_O1--><g class="link" data-entity-1="admin" data-entity-2="UC_O1" data-source-line="79" data-uid="lnk55" id="link_admin_UC_O1"><path d="M178.65,1610.07 C192.95,1616.12 207.79,1622.01 222,1627 C249.24,1636.56 273.9584,1643.6782 300.8384,1650.5782" fill="none" id="admin-to-UC_O1" style="stroke:#181818;stroke-width:1;"/><polygon fill="#181818" points="306.65,1652.07,298.9272,1645.9579,301.807,1650.8268,296.9381,1653.7067,306.65,1652.07" style="stroke:#181818;stroke-width:1;"/></g><!--link admin to UC_M1--><g class="link" data-entity-1="admin" data-entity-2="UC_M1" data-source-line="80" data-uid="lnk56" id="link_admin_UC_M1"><path d="M186.38,1541.31 C232.13,1525.6 280.6353,1508.9488 319.9453,1495.4488" fill="none" id="admin-to-UC_M1" style="stroke:#181818;stroke-width:1;"/><polygon fill="#181818" points="325.62,1493.5,315.8088,1492.6401,320.8911,1495.124,318.4072,1500.2064,325.62,1493.5" style="stroke:#181818;stroke-width:1;"/></g><!--link pracownik to UC_A2--><g class="link" data-entity-1="pracownik" data-entity-2="UC_A2" data-source-line="83" data-uid="lnk57" id="link_pracownik_UC_A2"><path d="M114.69,1832.67 C135.61,1785.41 169.67,1702.13 186,1627 C207.73,1527.02 165.12,1253.04 222,1168 C243.83,1135.37 277.5352,1117.3473 311.4552,1105.5073" fill="none" id="pracownik-to-UC_A2" style="stroke:#181818;stroke-width:1;"/><polygon fill="#181818" points="317.12,1103.53,307.3046,1102.7195,312.3993,1105.1778,309.941,1110.2726,317.12,1103.53" style="stroke:#181818;stroke-width:1;"/></g><!--link pracownik to UC_R2--><g class="link" data-entity-1="pracownik" data-entity-2="UC_R2" data-source-line="84" data-uid="lnk58" id="link_pracownik_UC_R2"><path d="M157.26,1871 C183.27,1871 208.81,1871 239.86,1871" fill="none" id="pracownik-to-UC_R2" style="stroke:#181818;stroke-width:1;"/><polygon fill="#181818" points="245.86,1871,236.86,1867,240.86,1871,236.86,1875,245.86,1871" style="stroke:#181818;stroke-width:1;"/></g><!--link pracownik to UC_R3--><g class="link" data-entity-1="pracownik" data-entity-2="UC_R3" data-source-line="85" data-uid="lnk59" id="link_pracownik_UC_R3"><path d="M157.29,1895.05 C177.69,1902.81 200.69,1911.17 222,1918 C249.08,1926.68 273.3738,1933.5072 299.9338,1940.4272" fill="none" id="pracownik-to-UC_R3" style="stroke:#181818;stroke-width:1;"/><polygon fill="#181818" points="305.74,1941.94,298.0392,1935.8001,300.9015,1940.6794,296.0222,1943.5417,305.74,1941.94" style="stroke:#181818;stroke-width:1;"/></g><!--link support to UC_A2--><g class="link" data-entity-1="support" data-entity-2="UC_A2" data-source-line="88" data-uid="lnk60" id="link_support_UC_A2"><path d="M149.14,1167.91 C200.32,1150.16 272.2013,1125.2163 322.9413,1107.6163" fill="none" id="support-to-UC_A2" style="stroke:#181818;stroke-width:1;"/><polygon fill="#181818" points="328.61,1105.65,318.7962,1104.8203,323.8861,1107.2886,321.4178,1112.3785,328.61,1105.65" style="stroke:#181818;stroke-width:1;"/></g><!--link support to UC_Rek2--><g class="link" data-entity-1="support" data-entity-2="UC_Rek2" data-source-line="89" data-uid="lnk61" id="link_support_UC_Rek2"><path d="M149.08,1212.19 C171.2,1222.67 197.5,1234.3 222,1243 C249.29,1252.69 274.1574,1259.7519 301.1374,1266.4619" fill="none" id="support-to-UC_Rek2" style="stroke:#181818;stroke-width:1;"/><polygon fill="#181818" points="306.96,1267.91,299.1915,1261.8561,302.1078,1266.7032,297.2607,1269.6196,306.96,1267.91" style="stroke:#181818;stroke-width:1;"/></g><!--link sys to UC_D5--><g class="link" data-entity-1="sys" data-entity-2="UC_D5" data-source-line="92" data-uid="lnk62" id="link_sys_UC_D5"><path d="M158.19,361.23 C178.25,352.11 200.82,342.51 222,335 C248.14,325.73 271.5311,318.9023 297.6311,312.1523" fill="none" id="sys-to-UC_D5" style="stroke:#181818;stroke-width:1;"/><polygon fill="#181818" points="303.44,310.65,293.7251,309.0309,298.5993,311.9019,295.7282,316.776,303.44,310.65" style="stroke:#181818;stroke-width:1;"/></g><!--link sys to UC_P2--><g class="link" data-entity-1="sys" data-entity-2="UC_P2" data-source-line="93" data-uid="lnk63" id="link_sys_UC_P2"><path d="M158.3,412.26 C210.23,430.28 277.9813,453.7837 325.7513,470.3537" fill="none" id="sys-to-UC_P2" style="stroke:#181818;stroke-width:1;"/><polygon fill="#181818" points="331.42,472.32,324.2279,465.5915,326.6961,470.6814,321.6062,473.1497,331.42,472.32" style="stroke:#181818;stroke-width:1;"/></g><!--SRC=[VLLBRjim4Dth54GsRHT143lP5440jruKI0mR3e82sXHJYLPPKg90KZ2ae9kWEKJRO-G8YUzLYfHeYhQo4sVUpBpvQHZUAAGu4YJxeL1A14uKuKKaAIbA492Z4X8A6RvJDSEeLKEHCHn5a2WkqCaD8xXG9mWaekRJAIf1iB0AyzahPcbE2YALWFPvXXOWA5Qao0mMMcqFNGb8-BOW5Dro2gmoYB8N7g8-BMyCH5PboOMZSbTBXNEhgIMwkffLYkUWwWQIdt1z7KLTaferBnIcKdr46gEpgMaBEK4F4KALn0b83RfNMouQN12CgCQ3yNp_-Tlit4VTyenleGMbl8shALGEEV6HCOZczIbj3BWKV4DOHxU5JgDVHmd6aByyRtN9ISZlZkuU8JNU6Xza7SO3bhk_3ASs5wb0LT9nZ0SSl-YESK70UTpzTi0nXiiD5YeaDqYMjuZN9_G-nqNreNUu731SwL9dJ9iOYnReS9EHm7EkSn69YV5MU4W5bf2Jtk5y47X6LGMCc27HFPJgzKzPyDs_P8yVb6YPVYSlpm8rYEsdjKLDVLJF3NUJORV6TMT-4UHUbqGQidQB016a4vEw1yxaSgGCApq6gcSygCAorAe4Zqp8Qb26hrZK6sBs09M-nmuyreGrrebMuiZ-pBdjfN08vsrzFhuOM4XUOBqQPnbF6r9uZLiVRmJ3ROvjytIihfLxcx6nzNv83s-jQSvrQdiEY-7mb8pGRlyfJzqmBCRBHHdack31n6QxHoxjl8WUjCy2qq7SDMzAKAAsaHjd2vw1eV1EHsHjE6H_uP4TH7HwUjtzomB191HC0q4SciIXIHoQB4F4FFIn2WMBqCHKm4_7NXkxBZxxWM1-89Y6WWlVw-ZLYip5yk8CtdgU1-zby5uCg8VtBdAtplD_85iVaqsF-zKNCkgke-Soa9WHySpj_OpQszdNvj9_hIR_0G00]--></g></svg>