<svg xmlns="http://www.w3.org/2000/svg" xmlns:xlink="http://www.w3.org/1999/xlink" contentStyleType="text/css" data-diagram-type="DESCRIPTION" height="275px" preserveAspectRatio="none" style="width:444px;height:275px;background:#FFFFFF;" version="1.1" viewBox="0 0 444 275" width="444px" zoomAndPan="magnify"><defs/><g><!--cluster Kontekst: Platno?ci--><g class="cluster" data-entity="Kontekst. Platno.ci" data-source-line="7" data-uid="ent0004" id="cluster_Kontekst. Platno.ci"><rect fill="none" height="259" rx="2.5" ry="2.5" style="stroke:#181818;stroke-width:1;" width="264" x="174" y="7"/><text fill="#000000" font-family="sans-serif" font-size="14" font-weight="bold" lengthAdjust="spacing" textLength="153.6445" x="229.1777" y="21.9951">Kontekst: Platno&#347;ci</text></g><!--entity UC1--><g class="entity" data-entity="UC1" data-source-line="8" data-uid="ent0005" id="entity_UC1"><ellipse cx="306.1559" cy="63.9312" fill="#F1F1F1" rx="97.6559" ry="21.9312" style="stroke:#181818;stroke-width:0.5;"/><text fill="#000000" font-family="sans-serif" font-size="14" lengthAdjust="spacing" textLength="170.8779" x="220.717" y="68.5796">Wyb&#243;r metody platnosci</text></g><!--entity UC2--><g class="entity" data-entity="UC2" data-source-line="9" data-uid="ent0006" id="entity_UC2"><ellipse cx="305.8594" cy="141.7719" fill="#F1F1F1" rx="91.8594" ry="20.7719" style="stroke:#181818;stroke-width:0.5;"/><text fill="#000000" font-family="sans-serif" font-size="14" lengthAdjust="spacing" textLength="157.9375" x="226.8906" y="146.4203">Oplacenie zam&#243;wienia</text></g><!--entity UC3--><g class="entity" data-entity="UC3" data-source-line="10" data-uid="ent0007" id="entity_UC3"><ellipse cx="306.147" cy="224.1294" fill="#F1F1F1" rx="116.147" ry="25.6294" style="stroke:#181818;stroke-width:0.5;"/><text fill="#000000" font-family="sans-serif" font-size="14" lengthAdjust="spacing" textLength="211.1143" x="200.5898" y="228.7778">Weryfikacja statusu transakcji</text></g><!--entity klient--><g class="entity" data-entity="klient" data-source-line="4" data-uid="ent0002" id="entity_klient"><ellipse cx="67.9678" cy="54.5" fill="#F1F1F1" rx="8" ry="8" style="stroke:#181818;stroke-width:0.5;"/><path d="M67.9678,62.5 L67.9678,89.5 M54.9678,70.5 L80.9678,70.5 M67.9678,89.5 L54.9678,104.5 M67.9678,89.5 L80.9678,104.5" fill="none" style="stroke:#181818;stroke-width:0.5;"/><text fill="#000000" font-family="sans-serif" font-size="14" lengthAdjust="spacing" textLength="39.9355" x="48" y="118.9951">Klient</text></g><!--entity sys--><g class="entity" data-entity="sys" data-source-line="5" data-uid="ent0003" id="entity_sys"><ellipse cx="67.9355" cy="202.2969" fill="#F1F1F1" rx="8" ry="8" style="stroke:#181818;stroke-width:0.5;"/><path d="M67.9355,210.2969 L67.9355,237.2969 M54.9355,218.2969 L80.9355,218.2969 M67.9355,237.2969 L54.9355,252.2969 M67.9355,237.2969 L80.9355,252.2969" fill="none" style="stroke:#181818;stroke-width:0.5;"/><text fill="#000000" font-family="sans-serif" font-size="14" lengthAdjust="spacing" textLength="52.2061" x="41.8325" y="266.792">System</text><text fill="#000000" font-family="sans-serif" font-size="14" font-style="italic" lengthAdjust="spacing" textLength="121.8711" x="7" y="190.4951">&#171;Automatyzacja&#187;</text></g><!--link klient to UC1--><g class="link" data-entity-1="klient" data-entity-2="UC1" data-source-line="13" data-uid="lnk8" id="link_klient_UC1"><path d="M88.31,82.36 C115.83,80.03 162.1615,76.1071 208.4915,72.1771" fill="none" id="klient-to-UC1" style="stroke:#181818;stroke-width:1;"/><polygon fill="#181818" points="214.47,71.67,205.1641,68.445,209.4879,72.0926,205.8403,76.4164,214.47,71.67" style="stroke:#181818;stroke-width:1;"/></g><!--link klient to UC2--><g class="link" data-entity-1="klient" data-entity-2="UC2" data-source-line="14" data-uid="lnk9" id="link_klient_UC2"><path d="M88.31,88.75 C121.67,96.94 185.6033,112.6583 237.0033,125.2883" fill="none" id="klient-to-UC2" style="stroke:#181818;stroke-width:1;"/><polygon fill="#181818" points="242.83,126.72,235.0445,120.688,237.9744,125.5269,233.1355,128.4569,242.83,126.72" style="stroke:#181818;stroke-width:1;"/></g><!--link sys to UC3--><g class="link" data-entity-1="sys" data-entity-2="UC3" data-source-line="16" data-uid="lnk10" id="link_sys_UC3"><path d="M130.08,224 C148.38,224 163.09,224 183.68,224" fill="none" id="sys-to-UC3" style="stroke:#181818;stroke-width:1;"/><polygon fill="#181818" points="189.68,224,180.68,220,184.68,224,180.68,228,189.68,224" style="stroke:#181818;stroke-width:1;"/></g><!--SRC=[LOzDQW9144RtTOfYzYwYko03acKM2KZ8kjAMaxR_XguQGXiyYSVm2EAzqZCgn5qLt-DLVPwtYfems-vRSMCp6xKfWZWRUyeKi2VZgEEr5iyunXGxpm1aD6LiNhtbg0sIe9l6Ux0keXocG8hWShaQD0NIiYUpexO5k9ch8qLb9_gCxvuqfilHs0P_0N4GDYGL-InVvrF6m9es1Vi9av6g-e-Nf__eMqqDHykuft0-_TIdBDt0-OEJSzbQDxw3egI33AYPef0pkxjw0GU0QpESpThfsCCw1nZxNPV57m00]--></g></svg>