<svg xmlns="http://www.w3.org/2000/svg" xmlns:xlink="http://www.w3.org/1999/xlink" contentStyleType="text/css" data-diagram-type="DESCRIPTION" height="377px" preserveAspectRatio="none" style="width:496px;height:377px;background:#FFFFFF;" version="1.1" viewBox="0 0 496 377" width="496px" zoomAndPan="magnify"><defs/><g><!--cluster Kontekst: Restauracje--><g class="cluster" data-entity="Kontekst. Restauracje" data-source-line="7" data-uid="ent0004" id="cluster_Kontekst. Restauracje"><rect fill="none" height="364" rx="2.5" ry="2.5" style="stroke:#181818;stroke-width:1;" width="286" x="204" y="7"/><text fill="#000000" font-family="sans-serif" font-size="14" font-weight="bold" lengthAdjust="spacing" textLength="175.0889" x="259.4556" y="21.9951">Kontekst: Restauracje</text></g><!--entity UC1--><g class="entity" data-entity="UC1" data-source-line="8" data-uid="ent0005" id="entity_UC1"><ellipse cx="347.1903" cy="65.9381" fill="#F1F1F1" rx="105.1903" ry="23.4381" style="stroke:#181818;stroke-width:0.5;"/><text fill="#000000" font-family="sans-serif" font-size="14" lengthAdjust="spacing" textLength="187.4346" x="253.473" y="70.5865">Dodanie restauracji/sklepu</text></g><!--entity UC2--><g class="entity" data-entity="UC2" data-source-line="9" data-uid="ent0006" id="entity_UC2"><ellipse cx="346.8295" cy="328.1659" fill="#F1F1F1" rx="123.8295" ry="27.1659" style="stroke:#181818;stroke-width:0.5;"/><text fill="#000000" font-family="sans-serif" font-size="14" lengthAdjust="spacing" textLength="227.5068" x="233.0761" y="332.8143">Zarzadzanie godzinami otwarcia</text></g><!--entity UC3--><g class="entity" data-entity="UC3" data-source-line="10" data-uid="ent0007" id="entity_UC3"><ellipse cx="347.2496" cy="152.8499" fill="#F1F1F1" rx="127.2496" ry="27.8499" style="stroke:#181818;stroke-width:0.5;"/><text fill="#000000" font-family="sans-serif" font-size="14" lengthAdjust="spacing" textLength="234.7598" x="229.8697" y="157.4984">Zarzadzanie pracownikami lokalu</text></g><!--entity UC4--><g class="entity" data-entity="UC4" data-source-line="11" data-uid="ent0008" id="entity_UC4"><ellipse cx="346.7979" cy="240.8596" fill="#F1F1F1" rx="109.7979" ry="24.3596" style="stroke:#181818;stroke-width:0.5;"/><text fill="#000000" font-family="sans-serif" font-size="14" lengthAdjust="spacing" textLength="197.4424" x="248.0767" y="245.508">Odbi&#243;r zlecenia do realizacji</text></g><!--entity admin--><g class="entity" data-entity="admin" data-source-line="4" data-uid="ent0002" id="entity_admin"><ellipse cx="82.8413" cy="96.5" fill="#F1F1F1" rx="8" ry="8" style="stroke:#181818;stroke-width:0.5;"/><path d="M82.8413,104.5 L82.8413,131.5 M69.8413,112.5 L95.8413,112.5 M82.8413,131.5 L69.8413,146.5 M82.8413,131.5 L95.8413,146.5" fill="none" style="stroke:#181818;stroke-width:0.5;"/><text fill="#000000" font-family="sans-serif" font-size="14" lengthAdjust="spacing" textLength="95.6826" x="35" y="160.9951">Administrator</text></g><!--entity pracownik--><g class="entity" data-entity="pracownik" data-source-line="5" data-uid="ent0003" id="entity_pracownik"><ellipse cx="83.1743" cy="239.5" fill="#F1F1F1" rx="8" ry="8" style="stroke:#181818;stroke-width:0.5;"/><path d="M83.1743,247.5 L83.1743,274.5 M70.1743,255.5 L96.1743,255.5 M83.1743,274.5 L70.1743,289.5 M83.1743,274.5 L96.1743,289.5" fill="none" style="stroke:#181818;stroke-width:0.5;"/><text fill="#000000" font-family="sans-serif" font-size="14" lengthAdjust="spacing" textLength="154.3486" x="6" y="303.9951">Pracownik / W&#322;asciciel</text></g><!--link admin to UC1--><g class="link" data-entity-1="admin" data-entity-2="UC1" data-source-line="14" data-uid="lnk9" id="link_admin_UC1"><path d="M131.14,115.2 C170.63,106.16 221.7913,94.4391 267.1713,84.0491" fill="none" id="admin-to-UC1" style="stroke:#181818;stroke-width:1;"/><polygon fill="#181818" points="273.02,82.71,263.3543,80.8195,268.1461,83.8259,265.1397,88.6177,273.02,82.71" style="stroke:#181818;stroke-width:1;"/></g><!--link admin to UC3--><g class="link" data-entity-1="admin" data-entity-2="UC3" data-source-line="15" data-uid="lnk10" id="link_admin_UC3"><path d="M131.14,130.86 C159.28,133.76 190.3615,136.9661 225.7515,140.6061" fill="none" id="admin-to-UC3" style="stroke:#181818;stroke-width:1;"/><polygon fill="#181818" points="231.72,141.22,223.1765,136.3202,226.7462,140.7084,222.358,144.2782,231.72,141.22" style="stroke:#181818;stroke-width:1;"/></g><!--link pracownik to UC2--><g class="link" data-entity-1="pracownik" data-entity-2="UC2" data-source-line="17" data-uid="lnk11" id="link_pracownik_UC2"><path d="M160.13,286.14 C191.41,293.19 221.9263,300.0632 254.1563,307.3132" fill="none" id="pracownik-to-UC2" style="stroke:#181818;stroke-width:1;"/><polygon fill="#181818" points="260.01,308.63,252.1073,302.7524,255.1319,307.5327,250.3516,310.5573,260.01,308.63" style="stroke:#181818;stroke-width:1;"/></g><!--link pracownik to UC4--><g class="link" data-entity-1="pracownik" data-entity-2="UC4" data-source-line="18" data-uid="lnk12" id="link_pracownik_UC4"><path d="M160.13,260.86 C187.33,257.96 212.4039,255.2774 241.2339,252.1974" fill="none" id="pracownik-to-UC4" style="stroke:#181818;stroke-width:1;"/><polygon fill="#181818" points="247.2,251.56,237.826,248.5387,242.2283,252.0911,238.6758,256.4934,247.2,251.56" style="stroke:#181818;stroke-width:1;"/></g><!--SRC=[TP11IWGn44NtEKNH-s5mPbOk1D6T2qKHmLsPb6rDqacJL3COSUELF89uBvEsUsWGb_NhlwhFT_Gi804Yjoy2XYDfuU1LiknxZDX1ZzfYItVowWZg6dthI2dK4Y8qvwPZpqaYbh41J81LcTSt4NKuUBQmXeVl3qoQDPCRZVsyKsfw0irLy48soIdSKX8SYcLF3RmfW26HnbGyby6WvnfcTl0wMKVzC9wzlpXPkXynPZHv9DfWCdli688SC6h6YTZyHnmpLiW5Ysv-ibqYr-Q9lpuZP4UQF2EOKYcXurpJJSHElPVQQZkmMfsDEPVJjjHmREjNslnHTZy0]--></g></svg>